# xmcd
#
# Track frame offsets:
#	150
#	12845
#	26048
#	40563
#	54167
#	65890
#	81962
#	94177
#	107921
#	120355
#	132529
#	143862
#	157226
#	169141
#	180977
#	192945
#
# Disc length: 2760 seconds
# Revision: 1
# Processed by: cddbd v1.5.2PL0 Copyright (c) Steve Scherf et al.
# Submitted via: dBpowerAMP V12.0
#
DISCID=d90ac610
DTITLE=Various Artist - The Poet Of The Blues disc 07 Otis Rush, Buddy Guy, Magic Sam And More
DYEAR=2011
DGENRE=Blues
TTITLE0=Oris Rush - It Takes Time
TTITLE1=Oris Rush - Checkin' On My Baby
TTITLE2=Charles Clark And Willie Dixon Band - Row Your Boat
TTITLE3=Buddy Guy - Sit And Cry
TTITLE4=Buddy Guy - Try To Quit You Baby
TTITLE5=Magic Sam - Easy Baby
TTITLE6=Magic Sam - 21 Days In Jail
TTITLE7=Shakey Jake And Willie Dixon Band - Call Me If You Need Me
TTITLE8=Shakey Jake And Willie Dixon Band - Roll Your Moneymaker
TTITLE9=Oris Rush And Willie Dixon Band - Double Trouble
TTITLE10=Oris Rush And Willie Dixon Band - Keep On Loving Me
TTITLE11=Buddy Guy - This Is The End
TTITLE12=Buddy Guy - You Sure Can't Do
TTITLE13=Oris Rush - All Your Love
TTITLE14=Oris Rush - My Baby's A Good'un
TTITLE15=Ike Turner and The Kings Of Rhythm - Down And Out
EXTD=
EXTT0=
EXTT1=
EXTT2=
EXTT3=
EXTT4=
EXTT5=
EXTT6=
EXTT7=
EXTT8=
EXTT9=
EXTT10=
EXTT11=
EXTT12=
EXTT13=
EXTT14=
EXTT15=
PLAYORDER=
